HIERARCHY
ROOT Hips
{
    OFFSET 0.000000 0.000000 0.000000
    CHANNELS 6 Xposition Yposition Zposition Zrotation Xrotation Yrotation
    JOINT Spine
    {
        OFFSET -0.000000 8.172037 0.000000
        CHANNELS 3 Zrotation Xrotation Yrotation
        JOINT Spine1
        {
            OFFSET -0.000000 18.392342 0.000000
            CHANNELS 3 Zrotation Xrotation Yrotation
            JOINT Neck
            {
                OFFSET -0.000000 18.316809 1.665164
                CHANNELS 3 Zrotation Xrotation Yrotation
                JOINT Head
                {
                    OFFSET -0.000000 13.952258 -1.993180
                    CHANNELS 3 Zrotation Xrotation Yrotation
                    End Site
                    {
                        OFFSET -0.000000 24.914745 0.000000
                    }
                }
            }
            JOINT LeftShoulder
            {
                OFFSET 4.035833 16.062790 -0.310290
                CHANNELS 3 Zrotation Xrotation Yrotation
                JOINT LeftArm
                {
                    OFFSET 12.395579 0.000000 0.000000
                    CHANNELS 3 Zrotation Xrotation Yrotation
                    JOINT LeftForeArm
                    {
                        OFFSET 26.414022 0.000000 0.000000
                        CHANNELS 3 Zrotation Xrotation Yrotation
                        JOINT LeftHand
                        {
                            OFFSET 28.641636 0.000000 0.000000
                            CHANNELS 3 Zrotation Xrotation Yrotation
                            End Site
                            {
                                OFFSET 14.948848 0.000000 0.000000
                            }
                        }
                    }
                }
            }
            JOINT RightShoulder
            {
                OFFSET -3.919767 16.062790 -0.310290
                CHANNELS 3 Zrotation Xrotation Yrotation
                JOINT RightArm
                {
                    OFFSET -12.395579 0.000000 0.000000
                    CHANNELS 3 Zrotation Xrotation Yrotation
                    JOINT RightForeArm
                    {
                        OFFSET -26.414022 0.000000 0.000000
                        CHANNELS 3 Zrotation Xrotation Yrotation
                        JOINT RightHand
                        {
                            OFFSET -28.641636 0.000000 0.000000
                            CHANNELS 3 Zrotation Xrotation Yrotation
                            End Site
                            {
                                OFFSET -14.948848 0.000000 0.000000
                            }
                        }
                    }
                }
            }
        }
    }
    JOINT LeftUpLeg
    {
        OFFSET 9.965899 0.000000 0.000000
        CHANNELS 3 Zrotation Xrotation Yrotation
        JOINT LeftLeg
        {
            OFFSET -0.000000 -49.671295 0.000000
            CHANNELS 3 Zrotation Xrotation Yrotation
            JOINT LeftFoot
            {
                OFFSET -0.000000 -36.155865 0.000000
                CHANNELS 3 Zrotation Xrotation Yrotation
                JOINT LeftToeBase
                {
                    OFFSET -0.000000 -6.477834 14.948848
                    CHANNELS 3 Zrotation Xrotation Yrotation
                    End Site
                    {
                        OFFSET -0.000000 0.000000 3.986359
                    }
                }
            }
        }
    }
    JOINT RightUpLeg
    {
        OFFSET -9.965899 0.000000 0.000000
        CHANNELS 3 Zrotation Xrotation Yrotation
        JOINT RightLeg
        {
            OFFSET -0.000000 -49.671295 0.000000
            CHANNELS 3 Zrotation Xrotation Yrotation
            JOINT RightFoot
            {
                OFFSET -0.000000 -36.155865 0.000000
                CHANNELS 3 Zrotation Xrotation Yrotation
                JOINT RightToeBase
                {
                    OFFSET -0.000000 -6.477834 14.948848
                    CHANNELS 3 Zrotation Xrotation Yrotation
                    End Site
                    {
                        OFFSET -0.000000 0.000000 3.986359
                    }
                }
            }
        }
    }
}
MOTION
Frames:    12
Frame Time:    0.010000
-3.500656    95.786407    35.084568    -1.400780    -1.216305    147.614777    -1.892657    -9.283217    -1.837878    -9.773398    4.562893    -1.293857    14.216621    36.235382    12.723111    -12.203512    -7.012160    13.691111    8.662868    6.667952    0.093893    -58.941177    30.935907    -21.105162    1.381923    -11.754727    -12.505095    3.651752    -11.580942    0.817245    -5.862781    -6.672159    12.163328    3.924201    -18.011362    28.361530    -3.849231    -21.494638    -2.986385    22.383982    -20.415945    6.338532    18.368658    -7.036913    -10.840506    -2.131850    32.833912    -10.472369    -6.016483    0.462543    -9.865478    0.000000    0.000000    0.000000    -8.074233    -11.984119    1.036250    8.318480    20.639179    9.499380    -16.043913    -8.188155    1.663652    0.000000    0.000000    0.000000    
-3.235009    95.940788    34.828320    -1.668092    -0.881627    146.991608    -1.938408    -9.310851    -1.975927    -9.847136    4.286219    -1.448656    14.289647    36.444038    13.097997    -12.747217    -6.966338    14.028277    8.684444    6.744136    0.130740    -58.945431    30.641752    -20.820086    0.840223    -11.461061    -12.884848    3.700803    -11.353131    0.471797    -5.826408    -6.378339    12.073493    3.343205    -16.703810    27.694057    -3.761415    -21.795588    -2.431374    22.415083    -20.702238    6.316815    18.142530    -6.258772    -10.982607    -2.492210    31.701708    -10.453581    -6.184565    1.316305    -9.593941    0.000000    0.000000    0.000000    -8.190643    -11.511203    1.012829    8.361162    20.202621    9.371055    -16.729870    -8.060183    1.727202    0.000000    0.000000    0.000000    
-2.980277    96.063492    34.569927    -1.975606    -0.580627    146.327805    -1.975430    -9.472512    -2.025882    -9.888595    4.137022    -1.504147    14.533689    36.404995    13.348297    -13.471842    -6.612893    14.231843    8.633434    6.660181    0.211480    -58.912189    31.154215    -20.841356    0.810373    -11.523489    -12.830374    3.901343    -11.416686    0.524821    -6.001715    -6.021221    11.958982    3.028832    -16.251749    27.269094    -3.250021    -21.750340    -2.000180    22.340769    -20.640257    6.310291    17.863054    -5.536021    -11.224184    -2.752584    30.687561    -10.510393    -6.578633    1.859258    -9.264305    0.000000    0.000000    0.000000    -8.247780    -11.081252    0.880793    8.008801    19.772623    9.374501    -17.185041    -8.223670    2.128355    0.000000    0.000000    0.000000    
-2.717847    96.162918    34.316181    -2.262300    -0.264253    145.633926    -2.005985    -9.647516    -1.989305    -9.873344    4.070938    -1.468210    14.913793    36.334267    13.565302    -14.412870    -6.318448    14.378866    8.760941    6.677390    -0.071207    -59.293385    30.325527    -20.515953    0.517218    -10.529825    -12.812931    3.179579    -10.475268    -0.092864    -6.210512    -5.784124    11.802997    2.465350    -16.552813    26.653017    -1.506022    -21.463055    -1.151574    21.898228    -20.303228    6.487833    17.561129    -4.866465    -11.189004    -2.880347    29.823099    -10.234880    -6.758076    2.699729    -9.541209    0.000000    0.000000    0.000000    -8.207924    -10.645244    0.764900    7.187353    19.293062    9.670899    -17.181770    -8.514848    2.735685    0.000000    0.000000    0.000000    
-2.437230    96.257751    34.067188    -2.472034    0.073766    144.878204    -1.917988    -9.821621    -1.887513    -10.041924    4.014210    -1.369857    15.277146    36.097878    13.746728    -15.099182    -5.797119    14.539632    8.788185    6.656213    0.016785    -59.091335    30.954094    -20.791904    0.666653    -10.680673    -12.496348    2.911350    -10.614529    -0.223362    -6.317513    -5.610940    11.681424    2.723663    -16.140110    26.666567    -1.601398    -21.390211    -0.868093    22.112509    -20.186752    6.642288    17.385368    -4.121187    -11.420925    -3.324496    29.041931    -9.787403    -6.868845    3.465458    -9.631723    0.000000    0.000000    0.000000    -8.090734    -10.197123    1.136508    6.301337    18.788454    9.995100    -16.802040    -8.727036    3.104502    0.000000    0.000000    0.000000    
-2.191041    96.343246    33.817966    -2.703887    0.391356    144.091431    -1.862655    -10.067225    -1.701137    -9.962776    4.026736    -1.185938    15.477413    36.111912    13.877780    -15.861501    -5.641894    14.597582    8.457605    6.703084    -0.208407    -58.806225    31.602669    -20.830057    0.964939    -11.257586    -12.592286    2.806565    -11.147903    0.218628    -6.627044    -5.346224    11.456080    2.793924    -15.905734    26.600754    -1.212145    -21.482702    -0.224145    22.062944    -20.257889    6.728089    17.048225    -3.439365    -11.280891    -3.267396    28.433477    -9.280825    -7.234091    4.351695    -10.202166    0.000000    0.000000    0.000000    -8.117820    -9.874688    2.234121    5.858243    18.361492    10.142745    -16.555656    -8.792892    2.988425    0.000000    0.000000    0.000000    
-1.953385    96.408669    33.628361    -2.838336    0.716790    143.445526    -1.989621    -9.983779    -1.640406    -9.580982    3.782795    -1.149461    15.518808    35.789738    14.045832    -16.361040    -5.058297    14.715767    8.268961    7.212173    0.311596    -58.327171    31.625603    -22.142353    0.875143    -11.005047    -11.789560    2.308283    -10.922704    -0.321513    -6.951971    -5.066338    11.225827    2.918597    -15.053329    26.755743    -1.493261    -21.877016    0.356093    22.286907    -20.601463    6.915321    16.825989    -2.883037    -11.425032    -3.410876    28.066729    -9.050161    -7.563154    5.302454    -10.272573    0.000000    0.000000    0.000000    -8.252034    -9.567123    4.017425    6.137708    18.005075    10.082088    -16.684830    -8.548714    2.091829    0.000000    0.000000    0.000000    
-1.838474    96.527107    33.431076    -3.333373    0.917682    142.788467    -2.005088    -10.345815    -1.515699    -9.705784    3.714284    -1.018681    15.634070    35.486732    14.183045    -16.647848    -4.611736    14.842744    8.252592    6.803865    0.057968    -58.901814    31.187267    -21.609594    0.629534    -10.889948    -11.757695    2.737727    -10.831351    -0.215243    -6.937780    -4.898242    11.123419    2.998454    -14.425065    26.908661    -1.800068    -22.118319    0.858519    22.478142    -20.810114    6.997180    16.210962    -2.747071    -10.985215    -3.140594    27.932398    -9.156471    -7.726613    6.450984    -10.552374    0.000000    0.000000    0.000000    -8.821946    -9.712772    5.927201    6.847565    17.788483    9.919400    -16.986063    -8.085117    1.030528    0.000000    0.000000    0.000000    
-1.658300    96.590111    33.265297    -3.523619    1.143573    142.263657    -1.910627    -10.458745    -1.458801    -9.790043    3.636849    -0.972383    16.157589    35.301350    14.257943    -17.435379    -4.237743    14.907625    8.325593    6.890138    0.108628    -59.057259    31.655060    -21.940977    1.064346    -11.535366    -11.393574    2.353049    -11.432872    -0.076545    -6.775135    -4.708920    11.128246    3.138832    -14.098103    27.095711    -2.188059    -22.140186    1.370985    22.745945    -20.822077    6.903549    15.903304    -2.474123    -11.088043    -3.130145    27.898617    -9.263798    -8.045562    7.065862    -10.280519    0.000000    0.000000    0.000000    -9.073768    -9.594801    7.611254    7.372487    17.502798    9.188533    -17.148220    -7.897582    0.594530    0.000000    0.000000    0.000000    
-1.494364    96.649841    33.105736    -3.732380    1.339786    141.764633    -1.821817    -10.652035    -1.396864    -9.823214    3.605750    -0.917062    16.358816    35.124405    14.363724    -17.894567    -3.958430    14.989003    8.408484    6.965461    0.091783    -59.499348    30.901878    -22.046841    0.936876    -11.485104    -11.162744    2.527381    -11.400797    -0.250704    -6.655855    -4.811407    11.301247    3.324554    -14.193023    27.143181    -2.028404    -21.858515    1.878466    22.809860    -20.551714    6.775697    15.593293    -2.265251    -11.311101    -3.251788    27.867058    -9.248100    -8.298049    7.613454    -9.857635    0.000000    0.000000    0.000000    -9.317738    -9.515205    8.354030    7.572799    17.330482    8.514152    -17.166885    -7.981919    0.972919    0.000000    0.000000    0.000000    
-1.334902    96.707542    32.943176    -3.926472    1.541969    141.325317    -1.706946    -10.825796    -1.369146    -9.891722    3.564006    -0.898861    16.797890    35.052673    14.437781    -18.711765    -3.674584    15.043070    8.402774    6.886269    0.131915    -59.895187    30.469553    -22.020876    0.744534    -11.296288    -10.851007    2.669239    -11.235159    -0.359222    -6.546236    -4.917750    11.558003    3.567783    -15.023926    27.182062    -1.297664    -21.200640    2.441980    22.699644    -19.937416    6.576722    15.276363    -2.095998    -11.552312    -3.355677    27.892014    -9.538684    -8.386124    8.062843    -9.311685    0.000000    0.000000    0.000000    -9.558084    -9.336602    8.617851    7.538038    17.090059    7.914098    -17.001543    -8.275304    1.755728    0.000000    0.000000    0.000000    
-1.152084    96.745949    32.774223    -4.030648    1.776810    140.961899    -1.680271    -10.994830    -1.327425    -9.752486    3.626350    -0.856228    16.902002    34.812263    14.491393    -19.120939    -3.314012    15.064566    8.348661    6.619857    -0.103408    -60.665947    29.096518    -21.507439    0.215167    -11.003369    -10.909591    2.565023    -10.992137    -0.406817    -6.515059    -5.006480    11.693985    3.695590    -15.226942    27.276234    -0.992512    -20.793760    2.950337    22.769197    -19.548775    6.453063    15.040715    -1.771850    -11.881618    -3.493153    27.652216    -9.325291    -8.444369    8.681654    -9.332675    0.000000    0.000000    0.000000    -9.770682    -8.957827    8.421331    7.357152    16.729841    7.974820    -16.771278    -8.568001    2.343500    0.000000    0.000000    0.000000    
